<svg version="1.1" id="Layer_1" xmlns="http://www.w3.org/2000/svg" x="0" y="0" viewBox="0 0 523.9 429" style="enable-background:new 0 0 523.9 429" xml:space="preserve"><style>.st0,.st2{fill:#fff;stroke:#ccc;stroke-width:4;stroke-linecap:round;stroke-linejoin:round}.st2{fill:none;stroke:#d0d0d0}.st3{fill:#d0d0d0}.st4,.st5{fill:none;stroke:#d0d0d0;stroke-width:4;stroke-miterlimit:10}.st5{fill:#b18be8}.st7{fill:#414141}</style><path class="st0" d="M128.7 257.2h252"/><circle class="st0" cx="285.1" cy="257.2" r="21"/><circle class="st0" cx="382.1" cy="257.2" r="21"/><path d="M330.2 34H434v50H330.2V34z" style="fill:#b18be8;stroke:#d0d0d0;stroke-width:4;stroke-linecap:round;stroke-linejoin:round"/><path class="st2" d="M382.1 129.7v-23.5M392.9 121l-10.8 10.8-10.9-10.8M382.1 325.1v-23.5M371.2 310.3l10.9-10.8 10.9 10.8"/><path class="st3" d="M355.9 65.3V54.4h6.6v1.4h-5.1v3.5h4.6v1.4h-4.6v4.6h-1.5zM370.7 63.2c-.5 1.4-1.8 2.4-3.3 2.3-2.2-.1-3.9-1.9-3.8-4.1.1-2 1.6-3.6 3.6-3.7 2.3 0 3.5 1.6 3.5 3.9v.5h-5.6c0 1.2.9 2.2 2.1 2.2h.1c1 .1 1.8-.6 2.1-1.5l1.3.4zm-1.4-2.3c0-1-.8-1.9-1.8-1.9h-.2c-1.1 0-1.9.8-2 1.9h4zM375 61.1l2-.3c.3 0 .6-.2.6-.5 0-.7-.6-1.3-1.4-1.3h-.2c-.9-.1-1.6.6-1.7 1.5l-1.4-.3c.2-1.5 1.5-2.5 3-2.4 2.2 0 3.1 1.3 3.1 2.7v3.7c0 .4 0 .8.1 1.2h-1.4c-.1-.3-.1-.7-.1-1-.5.8-1.4 1.3-2.4 1.2-1.2.2-2.4-.7-2.6-1.9s.7-2.4 1.9-2.6h.5zm2.6 1.1v-.3l-2.3.3c-.6 0-1.1.5-1.1 1.1 0 .6.5 1.1 1.2 1.1 1.1.1 2-.7 2.1-1.7.1-.2.1-.4.1-.5zM383.8 57.9h1.6v1.3h-1.6V63c-.1.5.3.9.7 1h.3c.2 0 .4 0 .6-.1v1.2c-.3.1-.7.1-1 .1-1.1.1-2-.7-2.1-1.8V59h-1.4v-1.3h.4c.5.1 1.1-.3 1.1-.8v-1.5h1.3l.1 2.5zM390.6 65.6c-1.5 0-2.8-1.2-2.8-2.7V58h1.5v4.5c-.1.9.5 1.7 1.4 1.9h.3c.9.1 1.7-.7 1.8-1.6V58h1.5v6c0 .5 0 .9.1 1.4H393c0-.3-.1-.6-.1-.9-.6.7-1.4 1.1-2.3 1.1zM401.3 59.4h-.6c-1.2 0-2 .7-2 2.3v3.7h-1.5V58h1.4v1.3c.4-.9 1.3-1.4 2.2-1.4h.5v1.5zM409.8 63.2c-.5 1.4-1.8 2.4-3.3 2.3-2.2-.1-3.9-1.9-3.8-4.1.1-2 1.6-3.6 3.6-3.7 2.3 0 3.5 1.6 3.5 3.9v.5h-5.6c0 1.2.9 2.2 2.1 2.2h.1c1 .1 1.8-.6 2.1-1.5l1.3.4zm-1.5-2.3c0-1-.8-1.9-1.8-1.9h-.2c-1.1 0-1.9.8-2 1.9h4z"/><path class="st4" d="M201.7 216.2c0 22.6-18.4 41-41 41h-32m73-41c0-22.6 18.4-41 41-41h22.4"/><circle class="st5" cx="286.1" cy="175.2" r="21"/><circle class="st5" cx="382.1" cy="175.2" r="21"/><path class="st4" d="M307.1 175.2h54"/><circle class="st0" cx="107.7" cy="257.2" r="21"/><path d="M332.8 345.9H429v50h-96.2v-50z" style="fill:#b3e3ff;stroke:#d0d0d0;stroke-width:4;stroke-linecap:round;stroke-linejoin:round;stroke-miterlimit:10"/><path class="st7" d="M365.7 377v-10h2l2.4 7.1c.2.7.4 1.2.5 1.5.1-.4.3-.9.5-1.6l2.4-7h1.8v10H374v-8.4l-2.9 8.4h-1.2l-2.9-8.5v8.5h-1.3zM382.7 376.1c-.5.4-.9.7-1.3.8-.4.2-.9.2-1.4.2-.8 0-1.4-.2-1.8-.6-.4-.4-.6-.9-.6-1.5 0-.4.1-.7.2-1 .2-.3.4-.5.6-.7.3-.2.6-.3.9-.4.2-.1.6-.1 1.1-.2 1-.1 1.7-.3 2.2-.4v-.3c0-.5-.1-.9-.3-1.1-.3-.3-.8-.4-1.4-.4-.6 0-1 .1-1.3.3-.3.2-.5.6-.6 1.1l-1.2-.2c.1-.5.3-.9.5-1.2.3-.3.6-.6 1.1-.7.5-.2 1-.3 1.6-.3s1.1.1 1.5.2.7.3.9.6c.2.2.3.5.4.8 0 .2.1.6.1 1.1v1.6c0 1.1 0 1.9.1 2.2l.3.9H383c-.2-.1-.3-.4-.3-.8zm-.1-2.7c-.4.2-1.1.3-2 .5-.5.1-.9.2-1.1.2-.2 0-.4.2-.5.4-.1.2-.2.4-.2.6 0 .3.1.6.4.8.2.2.6.3 1.1.3s.9-.1 1.3-.3c.4-.2.6-.5.8-.9.1-.3.2-.7.2-1.2v-.4zM386.4 368.4V367h1.2v1.4h-1.2zm0 8.6v-7.3h1.2v7.3h-1.2zM390.2 377v-7.3h1.1v1c.5-.8 1.3-1.2 2.3-1.2.4 0 .8.1 1.2.2.4.2.6.4.8.6s.3.6.4.9c0 .2.1.6.1 1.2v4.5h-1.2v-4.4c0-.5 0-.9-.1-1.1s-.3-.4-.5-.6c-.2-.1-.5-.2-.9-.2-.5 0-1 .2-1.4.5s-.6 1-.6 1.9v4h-1.2z"/></svg>