<svg version="1.1" id="Layer_1" xmlns="http://www.w3.org/2000/svg" x="0" y="0" viewBox="0 0 658.5 480.5" style="enable-background:new 0 0 658.5 480.5" xml:space="preserve"><style>.st0,.st2{fill:#fff;stroke:#ccc;stroke-width:4;stroke-linecap:round;stroke-linejoin:round}.st2{fill:none;stroke:#d0d0d0}.st3{fill:#d0d0d0}.st4{fill:none;stroke-miterlimit:10}.st4,.st5,.st6{stroke:#d0d0d0;stroke-width:4}.st5{fill:#b18be8;stroke-miterlimit:10}.st6{fill:#4cd3d6;stroke-linejoin:round}.st7{fill:#fff;stroke-miterlimit:10}.st10,.st7,.st8,.st9{stroke:#d0d0d0;stroke-width:4}.st8{fill:#fff;stroke-linecap:round;stroke-linejoin:round}.st10,.st9{fill:#4ed1a1;stroke-miterlimit:10}.st10{fill:#ffbd17}.st11{fill:#414141}</style><path class="st0" d="M97.9 265.8h252"/><circle class="st0" cx="254.3" cy="265.8" r="21"/><circle class="st0" cx="351.3" cy="265.8" r="21"/><path d="M299.3 42.5h103.8v50H299.3v-50z" style="fill:#b18be8;stroke:#d0d0d0;stroke-width:4;stroke-linecap:round;stroke-linejoin:round"/><path class="st0" d="M304.4 354.4h93.8v50h-93.8v-50z"/><path class="st2" d="M351.3 138.2v-23.5M362.1 129.6l-10.8 10.8-10.9-10.8M351.3 333.6v-23.5M340.4 318.8l10.9-10.8 10.9 10.8"/><path class="st3" d="M325.1 73.8V63h6.6v1.4h-5.1v3.5h4.6v1.4h-4.6v4.6s-1.5 0-1.5-.1zM339.9 71.8c-.5 1.4-1.8 2.4-3.3 2.3-2.2-.1-3.9-1.9-3.8-4.1.1-2 1.6-3.6 3.6-3.7 2.3 0 3.5 1.6 3.5 3.9v.5h-5.6c0 1.2.9 2.2 2.1 2.2h.1c1 .1 1.8-.6 2.1-1.5l1.3.4zm-1.5-2.4c0-1-.8-1.9-1.8-1.9h-.2c-1.1 0-1.9.8-2 1.9h4zM344.1 69.6l2-.3c.3 0 .6-.2.6-.5 0-.7-.6-1.3-1.4-1.3h-.2c-.9-.1-1.6.6-1.7 1.5l-1.4-.3c.2-1.5 1.5-2.5 3-2.4 2.2 0 3.1 1.3 3.1 2.7v3.7c0 .4 0 .8.1 1.2h-1.4c-.1-.3-.1-.7-.1-1-.5.8-1.4 1.3-2.4 1.2-1.2.1-2.3-.8-2.4-2-.1-1.2.8-2.3 2-2.4.1-.1.2-.1.2-.1zm2.6 1.1v-.3l-2.3.3c-.6 0-1.1.5-1.1 1.1 0 .6.5 1.1 1.2 1.1 1.1.1 2-.6 2.1-1.7.1-.2.1-.4.1-.5zM352.9 66.5h1.6v1.3h-1.6v3.8c-.1.5.3.9.7 1h.3c.2 0 .4 0 .6-.1v1.2c-.3.1-.7.1-1 .1-1.1.1-2-.7-2.1-1.8v-4.3H350v-1.3h.4c.5.1 1.1-.3 1.1-.8v-1.5h1.3l.1 2.4zM359.7 74.1c-1.5 0-2.8-1.2-2.8-2.7V66.5h1.5v4.4c-.1.9.5 1.7 1.4 1.9h.3c.9.1 1.7-.7 1.8-1.6v-4.8h1.5v6c0 .5 0 .9.1 1.4H362c0-.3-.1-.6-.1-.9-.4.8-1.3 1.2-2.2 1.2zM370.4 67.9h-.6c-1.2 0-2 .7-2 2.3v3.7h-1.5v-7.4h1.4v1.3c.4-.9 1.2-1.5 2.2-1.5h.5v1.6zM378.9 71.8c-.5 1.4-1.8 2.4-3.3 2.3-2.2-.1-3.9-1.9-3.8-4.1.1-2 1.6-3.6 3.6-3.7 2.3 0 3.5 1.6 3.5 3.9v.5h-5.6c0 1.2.9 2.2 2.1 2.2h.1c1 .1 1.8-.6 2.1-1.5l1.3.4zm-1.4-2.4c0-1-.8-1.9-1.8-1.9h-.2c-1.1 0-1.9.8-2 1.9h4z"/><path class="st4" d="M170.9 224.8c0 22.6-18.4 41-41 41h-32m73-41c0-22.6 18.4-41 41-41h22.4"/><circle class="st5" cx="255.3" cy="183.8" r="21"/><circle class="st5" cx="351.3" cy="183.8" r="21"/><path class="st4" d="M276.3 183.8h54"/><circle class="st0" cx="76.9" cy="265.8" r="21"/><path class="st2" d="M403.1 70.7h97.4M517.5 410.4c3.5 7.9 12.8 11.4 20.7 7.8 3.5-1.6 6.3-4.4 7.8-7.9"/><path class="st6" d="M531.4 446.8s22.5.7 31-4.3c14-8.1-.2-24.8-11.3-27.6-3.4 6.3-10.9 10.7-19.7 10.7h.2c-8.8 0-16.3-4.4-19.7-10.7-11 2.8-25.2 19.6-11.3 27.6 8.5 4.9 31 4.3 31 4.3"/><circle class="st6" cx="531.7" cy="389.5" r="18.9"/><path class="st7" d="M540.5 379.5c2.1 16.4 6.5 2 9.7 14-2.2 10.2-12.2 16.7-22.5 14.5-8.7-1.9-14.9-9.6-14.9-18.5 0-1.1.1-2.1.2-3.2 1 .1 21.7 9.1 27.5-6.8z"/><path class="st2" d="M542.1 406.2v8.6m-20.3.1v-8.5"/><path class="st8" d="M516.8 296.9c3.5 7.9 12.8 11.4 20.7 7.8 3.5-1.6 6.3-4.4 7.9-7.9"/><path class="st5" d="M531 333.2s22.5.7 31-4.3c14-8.1-.2-24.8-11.3-27.6-3.4 6.3-10.9 10.7-19.7 10.7h.2c-8.8 0-16.3-4.4-19.7-10.7-11 2.8-25.2 19.6-11.3 27.6 8.5 4.9 31 4.3 31 4.3"/><circle class="st5" cx="531" cy="276" r="18.9"/><path class="st8" d="M539.3 258.9c-5.5 14.1-16 .4-26.8 21 2.2 10.2 12.2 16.7 22.5 14.5 8.7-1.9 14.9-9.6 14.9-18.5 0-1-9.1-4.8-10.6-17zm2 32.9v9.5m-20.2.1v-9.3"/><path class="st5" d="M512.1 276.4s0 8.7 3.8 11.9c-3 1.4-9.5-.7-8.6-1.4 3.6-2.6 4.8-10.5 4.8-10.5zm37.8-.4s-.2 9.1-4 12.3c3 1.4 9.5-.7 8.6-1.4-3.6-2.6-4.6-10.9-4.6-10.9z"/><path class="st2" d="M517.2 80.3c3.5 7.9 12.8 11.4 20.7 7.8 3.5-1.6 6.3-4.4 7.9-7.9"/><path class="st9" d="M531.1 116.7s22.5.7 31-4.3c14-8.1-.2-24.8-11.3-27.6-3.4 6.3-10.9 10.7-19.7 10.7h.2c-8.8 0-16.3-4.4-19.7-10.7-11 2.8-25.2 19.6-11.3 27.6 8.5 4.9 31 4.3 31 4.3"/><circle class="st9" cx="531.5" cy="59.4" r="18.9"/><path class="st7" d="M518.6 45.5c2.1 16.4 28 5.9 31.2 17.9-2.2 10.2-12.2 16.7-22.5 14.5-8.7-1.9-14.9-9.6-14.9-18.5 0-1.1.1-2.1.2-3.2 1.1 0 6.8 3.2 6-10.7z"/><path class="st2" d="M541.7 76.1v8.7M521.5 84.8v-8.5"/><path class="st8" d="M516.5 189.4c3.5 7.9 12.8 11.4 20.7 7.8 3.5-1.6 6.3-4.4 7.9-7.9"/><path class="st10" d="M530.8 225.8s22.5.7 31-4.3c14-8.1-.2-24.8-11.3-27.6-3.4 6.3-10.9 10.7-19.7 10.7h.2c-8.8 0-16.3-4.4-19.7-10.7-11 2.8-25.2 19.6-11.3 27.6 8.5 4.9 31 4.3 31 4.3"/><circle transform="rotate(-80.781 530.764 168.451)" class="st10" cx="530.8" cy="168.5" r="18.9"/><path class="st8" d="M539.1 151.4c-5.5 14.1-16 .4-26.8 21 2.2 10.2 12.2 16.7 22.5 14.5 8.7-1.9 14.9-9.6 14.9-18.5 0-1-9.2-4.8-10.6-17zm2 32.9v9.5m-20.2.1v-9.3"/><path class="st5" d="M511.9 168.9s0 8.7 3.8 11.9c-3 1.4-9.5-.7-8.6-1.4 3.6-2.5 4.8-10.5 4.8-10.5zm37.8-.4s-.2 9.1-4 12.3c3 1.4 9.5-.7 8.6-1.4-3.6-2.5-4.6-10.9-4.6-10.9z"/><path class="st2" d="M530.8 124.7v13.9M530.8 234.7v13.9M530.8 344.7v13.9"/><path class="st11" d="M334.9 385.5v-10h2l2.4 7.1c.2.7.4 1.2.5 1.5.1-.4.3-.9.5-1.6l2.4-7h1.8v10h-1.3v-8.4l-2.9 8.4h-1.2l-2.9-8.5v8.5h-1.3zM351.9 384.6c-.5.4-.9.7-1.3.8-.4.2-.9.2-1.4.2-.8 0-1.4-.2-1.8-.6-.4-.4-.6-.9-.6-1.5 0-.4.1-.7.2-1 .2-.3.4-.5.6-.7.3-.2.6-.3.9-.4.2-.1.6-.1 1.1-.2 1-.1 1.7-.3 2.2-.4v-.3c0-.5-.1-.9-.3-1.1-.3-.3-.8-.4-1.4-.4-.6 0-1 .1-1.3.3-.3.2-.5.6-.6 1.1l-1.2-.2c.1-.5.3-.9.5-1.2.3-.3.6-.6 1.1-.7.5-.2 1-.3 1.6-.3s1.1.1 1.5.2.7.3.9.6c.2.2.3.5.4.8 0 .2.1.6.1 1.1v1.6c0 1.1 0 1.9.1 2.2l.3.9h-1.3c-.2-.1-.3-.4-.3-.8zm-.1-2.7c-.4.2-1.1.3-2 .5-.5.1-.9.2-1.1.2-.2 0-.4.2-.5.4-.1.2-.2.4-.2.6 0 .3.1.6.4.8.2.2.6.3 1.1.3s.9-.1 1.3-.3c.4-.2.6-.5.8-.9.1-.3.2-.7.2-1.2v-.4zM355.6 376.9v-1.4h1.2v1.4h-1.2zm0 8.6v-7.3h1.2v7.3h-1.2zM359.4 385.5v-7.3h1.1v1c.5-.8 1.3-1.2 2.3-1.2.4 0 .8.1 1.2.2.4.2.6.4.8.6s.3.6.4.9c0 .2.1.6.1 1.2v4.5h-1.2V381c0-.5 0-.9-.1-1.1s-.3-.4-.5-.6c-.2-.1-.5-.2-.9-.2-.5 0-1 .2-1.4.5s-.6 1-.6 1.9v4h-1.2z"/></svg>