<svg id="Layer_1" data-name="Layer 1" xmlns="http://www.w3.org/2000/svg" viewBox="0 0 1109.94 577.73"><defs><style>.cls-1,.cls-3{fill:none}.cls-1,.cls-10,.cls-11,.cls-2,.cls-3,.cls-4,.cls-6,.cls-8,.cls-9{stroke:#d0d0d0}.cls-1,.cls-10,.cls-11,.cls-6{stroke-miterlimit:10}.cls-1,.cls-10,.cls-11,.cls-2,.cls-3,.cls-4,.cls-6,.cls-8,.cls-9{stroke-width:4px}.cls-10,.cls-2{fill:#b18be8}.cls-2,.cls-3,.cls-8,.cls-9{stroke-linecap:round}.cls-2,.cls-3,.cls-4,.cls-8,.cls-9{stroke-linejoin:round}.cls-4{fill:#4cd3d6}.cls-5{fill:#d0d0d0}.cls-6{fill:#4ed1a1}.cls-11,.cls-8{fill:#fff}.cls-9{fill:#dce1e5}</style></defs><path class="cls-1" d="M436 208.61H328.82a21 21 0 0 0-21 21v38.9"/><path class="cls-2" d="M282.82 268.51v-117.7"/><path class="cls-1" d="M129.62 208.61h107.2a21 21 0 0 1 21 21v38.9"/><path class="cls-3" d="M436 208.61a21 21 0 0 0 21-21v-36.9m-327.4 57.9a21 21 0 0 1-21-21v-36.9"/><path class="cls-4" d="M56.72 106.71h103.8v50H56.72v-50Z"/><path class="cls-5" d="M74.14 137.49v-10.9h6.63V128h-5.13v3.51h4.65v1.41h-4.65v4.58h-1.5ZM89 135.39a3.35 3.35 0 0 1-3.32 2.34 3.94 3.94 0 0 1-.18-7.86c2.28 0 3.55 1.57 3.55 3.88a3.24 3.24 0 0 1 0 .46H83.4a2.2 2.2 0 0 0 2.23 2.25 2 2 0 0 0 2.08-1.46ZM87.49 133a1.86 1.86 0 0 0-2-1.89 2 2 0 0 0-2 1.89h4ZM93.22 133.26l2-.29a.54.54 0 0 0 .57-.55 1.35 1.35 0 0 0-1.6-1.32 1.57 1.57 0 0 0-1.68 1.49l-1.38-.32a2.85 2.85 0 0 1 3-2.4c2.21 0 3.08 1.26 3.08 2.71v3.71a7 7 0 0 0 .09 1.21h-1.39a5.48 5.48 0 0 1-.08-1 2.7 2.7 0 0 1-2.38 1.23 2.24 2.24 0 1 1-.23-4.47Zm2.57 1.06V134l-2.26.34a1.11 1.11 0 0 0-1.08 1.11 1.12 1.12 0 0 0 1.2 1.08 1.94 1.94 0 0 0 2.13-2.2ZM102 130.1h1.6v1.31H102v3.84a.88.88 0 0 0 1 1 3 3 0 0 0 .57-.06v1.23a3.17 3.17 0 0 1-1 .14 1.92 1.92 0 0 1-2.06-2.11v-4.05h-1.37v-1.3h.4a1 1 0 0 0 1.14-1.14v-1.2H102v2.34ZM108.8 137.72a2.74 2.74 0 0 1-2.77-3v-4.62h1.45v4.45a1.65 1.65 0 0 0 1.68 1.91 1.67 1.67 0 0 0 1.75-1.89v-4.47h1.45v6a12.62 12.62 0 0 0 .08 1.37H111a6.46 6.46 0 0 1-.06-.89 2.41 2.41 0 0 1-2.14 1.14ZM119.51 131.56a4.58 4.58 0 0 0-.63 0c-1.22 0-2 .65-2 2.28v3.71h-1.45v-7.4h1.42v1.29A2.32 2.32 0 0 1 119 130a2.68 2.68 0 0 1 .48 0v1.54ZM128 135.39a3.35 3.35 0 0 1-3.32 2.34 3.94 3.94 0 0 1-.18-7.86c2.28 0 3.55 1.57 3.55 3.88a3.21 3.21 0 0 1 0 .46h-5.57a2.2 2.2 0 0 0 2.23 2.25 2 2 0 0 0 2.08-1.49Zm-1.46-2.39a1.86 1.86 0 0 0-2-1.89 2 2 0 0 0-2 1.89h4ZM141.44 134.45h-4.83l-1.15 3h-1.61l4.34-10.91h1.74l4.34 10.91h-1.63Zm-4.29-1.4h3.75l-1.9-4.89Z"/><path class="cls-6" d="M231.78 106.49h103.81v50H231.78v-50Z"/><path class="cls-5" d="M249.2 137.28v-10.91h6.63v1.4h-5.12v3.51h4.65v1.41h-4.65v4.58h-1.51ZM264 135.17a3.35 3.35 0 0 1-3.32 2.34 3.94 3.94 0 0 1-.18-7.86c2.28 0 3.55 1.57 3.55 3.88a3.24 3.24 0 0 1 0 .46h-5.57a2.2 2.2 0 0 0 2.23 2.25 2 2 0 0 0 2.08-1.49Zm-1.46-2.35a1.86 1.86 0 0 0-2-1.89 2 2 0 0 0-2 1.89h4ZM268.28 133l2-.29a.54.54 0 0 0 .57-.55 1.35 1.35 0 0 0-1.6-1.32 1.57 1.57 0 0 0-1.68 1.49l-1.38-.32a2.85 2.85 0 0 1 3-2.4c2.21 0 3.08 1.26 3.08 2.71v3.71a7 7 0 0 0 .09 1.21H271a5.48 5.48 0 0 1-.08-1 2.7 2.7 0 0 1-2.38 1.23 2.24 2.24 0 1 1-.26-4.47Zm2.57 1.06v-.34l-2.26.34a1.11 1.11 0 0 0-1.08 1.11 1.12 1.12 0 0 0 1.2 1.08 1.94 1.94 0 0 0 2.14-2.14ZM277.07 129.88h1.6v1.31h-1.6V135a.88.88 0 0 0 1 1 3 3 0 0 0 .57-.06v1.23a3.17 3.17 0 0 1-1 .14 1.92 1.92 0 0 1-2.06-2.11v-4.06h-1.42v-1.31h.4a1 1 0 0 0 1.14-1.14v-1.2h1.32v2.34ZM283.87 137.51a2.74 2.74 0 0 1-2.77-3v-4.66h1.45v4.45a1.65 1.65 0 0 0 1.68 1.91 1.67 1.67 0 0 0 1.75-1.89v-4.46h1.45v6a12.62 12.62 0 0 0 .08 1.37h-1.38a6.46 6.46 0 0 1-.06-.89 2.41 2.41 0 0 1-2.2 1.17ZM294.58 131.34a4.58 4.58 0 0 0-.63 0c-1.22 0-2 .65-2 2.28v3.71h-1.45v-7.4h1.42v1.29a2.32 2.32 0 0 1 2.21-1.42 2.68 2.68 0 0 1 .48 0v1.54ZM303.07 135.17a3.35 3.35 0 0 1-3.32 2.34 3.94 3.94 0 0 1-.18-7.86c2.28 0 3.55 1.57 3.55 3.88a3.21 3.21 0 0 1 0 .46h-5.57a2.2 2.2 0 0 0 2.23 2.25 2 2 0 0 0 2.08-1.49Zm-1.46-2.35a1.86 1.86 0 0 0-2-1.89 2 2 0 0 0-2 1.89h4ZM313.69 126.37c2.08 0 3.29 1.23 3.29 3a2.42 2.42 0 0 1-1.63 2.35 2.62 2.62 0 0 1 2 2.63c0 1.72-1.37 3-3.37 3h-3.81v-10.98h3.55Zm-.17 4.77a1.74 1.74 0 1 0-.06-3.45h-1.82v3.45h1.88Zm.22 4.81a1.8 1.8 0 0 0 2-1.74 1.73 1.73 0 0 0-2-1.78h-2.15V136h2.09Z"/><path class="cls-2" d="M405.12 106.49h103.8v50h-103.8v-50Z"/><path class="cls-5" d="M422.54 137.28v-10.91h6.63v1.4H424v3.51h4.65v1.41H424v4.58h-1.51ZM437.35 135.17a3.35 3.35 0 0 1-3.32 2.34 3.94 3.94 0 0 1-.18-7.86c2.28 0 3.55 1.57 3.55 3.88a3.24 3.24 0 0 1 0 .46h-5.6a2.2 2.2 0 0 0 2.23 2.25 2 2 0 0 0 2.08-1.49Zm-1.46-2.35a1.86 1.86 0 0 0-2-1.89 2 2 0 0 0-2 1.89h4ZM441.62 133l2-.29a.54.54 0 0 0 .57-.55 1.35 1.35 0 0 0-1.6-1.32 1.57 1.57 0 0 0-1.68 1.49l-1.38-.32a2.85 2.85 0 0 1 3-2.4c2.21 0 3.08 1.26 3.08 2.71v3.71a7 7 0 0 0 .09 1.21h-1.42a5.48 5.48 0 0 1-.08-1 2.7 2.7 0 0 1-2.38 1.23 2.24 2.24 0 1 1-.2-4.47Zm2.57 1.06v-.34l-2.26.34a1.11 1.11 0 0 0-1.08 1.11 1.12 1.12 0 0 0 1.2 1.08 1.94 1.94 0 0 0 2.13-2.14ZM450.4 129.88h1.6v1.31h-1.6V135a.88.88 0 0 0 1 1 3 3 0 0 0 .6 0v1.23a3.17 3.17 0 0 1-1 .14 1.92 1.92 0 0 1-2.06-2.11v-4.06h-1.42v-1.31h.4a1 1 0 0 0 1.14-1.14v-1.2h1.32v2.34ZM457.2 137.51a2.74 2.74 0 0 1-2.77-3v-4.66h1.45v4.45a1.65 1.65 0 0 0 1.68 1.91 1.67 1.67 0 0 0 1.75-1.89v-4.46h1.45v6a12.62 12.62 0 0 0 .08 1.37h-1.38a6.46 6.46 0 0 1-.06-.89 2.41 2.41 0 0 1-2.2 1.17ZM467.91 131.34a4.58 4.58 0 0 0-.63 0c-1.22 0-2 .65-2 2.28v3.71h-1.48v-7.4h1.42v1.29a2.32 2.32 0 0 1 2.21-1.42 2.68 2.68 0 0 1 .48 0v1.54ZM476.4 135.17a3.35 3.35 0 0 1-3.32 2.34 3.94 3.94 0 0 1-.18-7.86c2.28 0 3.55 1.57 3.55 3.88a3.21 3.21 0 0 1 0 .46h-5.57a2.2 2.2 0 0 0 2.23 2.25 2 2 0 0 0 2.08-1.49Zm-1.46-2.35a1.86 1.86 0 0 0-2-1.89 2 2 0 0 0-2 1.89h4ZM482.78 131.82a5.4 5.4 0 0 1 5.41-5.68 4.63 4.63 0 0 1 4.8 3.46l-1.4.49a3.23 3.23 0 0 0-3.4-2.57c-2 0-3.88 1.45-3.88 4.29s1.89 4.31 3.88 4.31a3.47 3.47 0 0 0 3.48-2.62l1.33.5a4.76 4.76 0 0 1-4.81 3.51 5.36 5.36 0 0 1-5.41-5.69Z"/><path class="cls-1" d="M129.48 328.61h107.2a21 21 0 0 0 21-21v-38.9"/><path class="cls-2" d="M282.68 268.71v117.7"/><path class="cls-1" d="M435.88 328.61h-107.2a21 21 0 0 1-21-21v-38.9"/><path class="cls-3" d="M129.48 328.61a21 21 0 0 0-21 21v36.9m327.4-57.9a21 21 0 0 1 21 21v36.9"/><path d="M185.38 241.25H384v50H185.38v-50Z" style="stroke:#ccc;fill:#fff;stroke-linejoin:round;stroke-linecap:round;stroke-width:4px"/><path class="cls-5" d="M259.35 270.15h-1.63v4.46h-1.52V263.7h4.11a3.16 3.16 0 0 1 3.34 3.25A3.05 3.05 0 0 1 261 270l2.6 4.57h-1.75Zm.68-1.35a1.88 1.88 0 1 0 0-3.74h-2.31v3.74H260ZM272.29 272.5a3.35 3.35 0 0 1-3.32 2.34 3.94 3.94 0 0 1-.18-7.86c2.28 0 3.55 1.57 3.55 3.88a3.21 3.21 0 0 1 0 .46h-5.57a2.2 2.2 0 0 0 2.23 2.25 2 2 0 0 0 2.08-1.49Zm-1.46-2.35a1.86 1.86 0 0 0-2-1.89 2 2 0 0 0-2 1.89h4ZM274.77 274.61v-11.14h1.45v11.14h-1.45ZM285.71 272.5a3.35 3.35 0 0 1-3.32 2.34 3.94 3.94 0 0 1-.18-7.86c2.28 0 3.55 1.57 3.55 3.88a3.21 3.21 0 0 1 0 .46h-5.57a2.2 2.2 0 0 0 2.23 2.25 2 2 0 0 0 2.08-1.49Zm-1.46-2.35a1.86 1.86 0 0 0-2-1.89 2 2 0 0 0-2 1.89h4ZM290 270.38l2-.29a.54.54 0 0 0 .57-.55 1.35 1.35 0 0 0-1.6-1.32 1.57 1.57 0 0 0-1.68 1.49l-1.38-.32a2.85 2.85 0 0 1 3-2.4c2.21 0 3.08 1.26 3.08 2.71v3.71a7 7 0 0 0 .09 1.21h-1.42a5.45 5.45 0 0 1-.08-1 2.69 2.69 0 0 1-2.38 1.23 2.24 2.24 0 1 1-.2-4.47Zm2.57 1.06v-.34l-2.26.34a1.1 1.1 0 0 0-1.08 1.11 1.12 1.12 0 0 0 1.2 1.08 1.94 1.94 0 0 0 2.11-2.19ZM297.44 272.22a1.58 1.58 0 0 0 1.72 1.38 1.09 1.09 0 0 0 1.26-1 1 1 0 0 0-1-1l-1.26-.28a2.1 2.1 0 0 1-1.85-2.08A2.52 2.52 0 0 1 299 267a2.62 2.62 0 0 1 2.81 2l-1.28.48a1.43 1.43 0 0 0-1.54-1.23 1.12 1.12 0 0 0-1.23 1 .91.91 0 0 0 .85.89l1.2.26a2.25 2.25 0 0 1 2 2.2 2.45 2.45 0 0 1-2.71 2.29 2.79 2.79 0 0 1-3-2.15ZM310.73 272.5a3.35 3.35 0 0 1-3.32 2.34 3.94 3.94 0 0 1-.18-7.86c2.28 0 3.55 1.57 3.55 3.88a3.24 3.24 0 0 1 0 .46h-5.57a2.2 2.2 0 0 0 2.23 2.25 2 2 0 0 0 2.08-1.49Zm-1.46-2.35a1.86 1.86 0 0 0-2-1.89 2 2 0 0 0-2 1.89h4Z"/><path class="cls-8" d="M94.06 445a15.62 15.62 0 0 0 28.52-.08"/><path class="cls-9" d="M108.36 481.38s22.52.66 31-4.27c14-8.14-.25-24.82-11.26-27.62-3.37 6.33-10.93 10.69-19.73 10.69h.25c-8.8 0-16.28-4.44-19.73-10.69-11 2.79-25.24 19.56-11.26 27.62 8.47 4.93 31 4.27 31 4.27"/><circle class="cls-9" cx="108.28" cy="424.08" r="18.91"/><path class="cls-8" d="M116.58 407.07c-5.51 14.14-15.95.41-26.8 21a18.91 18.91 0 0 0 37.4-3.95c.01-1.12-9.12-4.89-10.6-17.05Zm2.06 32.88v9.54m-20.22 0v-9.29"/><path class="cls-10" d="M89.37 424.49s0 8.71 3.78 11.92c-3 1.4-9.54-.74-8.63-1.4 3.7-2.54 4.85-10.52 4.85-10.52Zm37.81-.41s-.16 9.12-3.95 12.33c3 1.4 9.54-.74 8.63-1.4-3.69-2.54-4.67-10.93-4.67-10.93Z"/><path class="cls-3" d="M442.87 445.56a15.62 15.62 0 0 0 28.52-.08"/><path class="cls-9" d="M456.76 481.9s22.52.66 31-4.27c14-8.14-.25-24.82-11.26-27.62-3.37 6.33-10.93 10.69-19.73 10.69h.23c-8.8 0-16.28-4.44-19.73-10.69-11 2.79-25.24 19.56-11.26 27.62 8.47 4.93 31 4.27 31 4.27"/><circle class="cls-9" cx="457.09" cy="424.6" r="18.91"/><path class="cls-11" d="M444.27 410.71c2.14 16.44 28 5.92 31.24 17.92a18.91 18.91 0 0 1-37.4-3.95 21.05 21.05 0 0 1 .25-3.21c.97.01 6.64 3.13 5.91-10.76Z"/><path class="cls-3" d="M467.37 441.29V450M447.14 450v-8.46"/><path class="cls-8" d="M268.39 445.34a15.62 15.62 0 0 0 28.52-.08"/><path class="cls-9" d="M282.7 481.68s22.52.66 31-4.27c14-8.14-.25-24.82-11.26-27.62-3.37 6.33-10.93 10.69-19.73 10.69h.25c-8.8 0-16.28-4.44-19.73-10.69-11 2.79-25.24 19.56-11.26 27.62 8.47 4.93 31 4.27 31 4.27"/><circle class="cls-9" cx="282.61" cy="424.38" r="18.91"/><path class="cls-8" d="M290.92 407.37c-5.51 14.14-15.95.41-26.8 21a18.91 18.91 0 0 0 37.4-3.95c0-1.11-9.12-4.89-10.6-17.05Zm2.08 32.88v9.54m-20.22 0v-9.29"/><path class="cls-10" d="M263.71 424.79s0 8.71 3.78 11.92c-3 1.4-9.54-.74-8.63-1.4 3.7-2.54 4.85-10.52 4.85-10.52Zm37.81-.41s-.16 9.12-3.95 12.33c3 1.4 9.54-.74 8.63-1.4-3.69-2.54-4.68-10.93-4.68-10.93Z"/><path class="cls-5" d="M75.56 517.43h-4.83l-1.15 3H68l4.34-10.91H74l4.34 10.91h-1.6ZM71.27 516H75l-1.89-4.89ZM82.65 520.7a2.74 2.74 0 0 1-2.77-3v-4.66h1.45v4.45a1.65 1.65 0 0 0 1.67 1.94 1.67 1.67 0 0 0 1.75-1.89v-4.46h1.45v6a12.88 12.88 0 0 0 .08 1.37H84.9a6.44 6.44 0 0 1-.06-.89 2.41 2.41 0 0 1-2.19 1.14ZM94.36 519.35a2.48 2.48 0 0 1-2.29 1.32c-2.17 0-3.51-1.72-3.51-3.92a3.63 3.63 0 0 1 3.51-3.87 2.27 2.27 0 0 1 2.26 1.25v-4.78h1.43v9.77a11.52 11.52 0 0 0 .08 1.37h-1.4a6.16 6.16 0 0 1-.08-1v-.12Zm-2.15 0c1.32 0 2.14-1.15 2.14-2.68s-.8-2.57-2.12-2.57-2.23 1.13-2.23 2.65.82 2.65 2.21 2.65ZM99.52 509.23a1 1 0 1 1-1 1 1 1 0 0 1 1-1Zm-.71 11.24v-7.4h1.43v7.4h-1.43ZM109.73 518.36a3.35 3.35 0 0 1-3.32 2.34 3.94 3.94 0 0 1-.19-7.86c2.28 0 3.55 1.57 3.55 3.88a3.21 3.21 0 0 1 0 .46h-5.57a2.2 2.2 0 0 0 2.23 2.25 2 2 0 0 0 2.08-1.49Zm-1.46-2.36a1.86 1.86 0 0 0-2-1.89 2 2 0 0 0-2 1.89h4ZM113.66 520.47h-1.45v-7.4h1.41v1.06a2.54 2.54 0 0 1 2.28-1.28c1.77 0 2.64 1.28 2.64 2.92v4.69h-1.44V516a1.61 1.61 0 0 0-1.72-1.86 1.78 1.78 0 0 0-1.72 2v4.28ZM122.31 516.76a2.33 2.33 0 0 0 2.26 2.6 2 2 0 0 0 2.06-1.52l1.28.55a3.4 3.4 0 0 1-3.34 2.31 3.94 3.94 0 0 1 0-7.86 3.22 3.22 0 0 1 3.29 2.35l-1.31.55a1.94 1.94 0 0 0-2-1.57 2.3 2.3 0 0 0-2.24 2.59ZM136.55 518.36a3.35 3.35 0 0 1-3.32 2.34 3.94 3.94 0 0 1-.18-7.86c2.28 0 3.55 1.57 3.55 3.88a3.21 3.21 0 0 1 0 .46H131a2.2 2.2 0 0 0 2.23 2.25 2 2 0 0 0 2.08-1.49Zm-1.46-2.36a1.86 1.86 0 0 0-2-1.89 2 2 0 0 0-2 1.89h4ZM150 517.43h-4.83l-1.15 3h-1.62l4.34-10.91h1.74l4.34 10.91h-1.63Zm-4.3-1.43h3.75l-1.89-4.89ZM248.57 517.43h-4.83l-1.15 3H241l4.34-10.91H247l4.34 10.91h-1.63Zm-4.29-1.4H248l-1.89-4.89ZM255.66 520.7a2.74 2.74 0 0 1-2.77-3v-4.66h1.45v4.45a1.65 1.65 0 0 0 1.68 1.91 1.67 1.67 0 0 0 1.75-1.89v-4.46h1.45v6a12.56 12.56 0 0 0 .08 1.37h-1.38a6.46 6.46 0 0 1-.06-.89 2.41 2.41 0 0 1-2.2 1.17ZM267.37 519.35a2.48 2.48 0 0 1-2.29 1.32c-2.17 0-3.51-1.72-3.51-3.92a3.63 3.63 0 0 1 3.51-3.87 2.27 2.27 0 0 1 2.26 1.25v-4.78h1.43v9.77a11.62 11.62 0 0 0 .08 1.37h-1.4a6.28 6.28 0 0 1-.08-1v-.12Zm-2.15 0c1.32 0 2.14-1.15 2.14-2.68s-.8-2.57-2.12-2.57-2.18 1.08-2.18 2.6.78 2.7 2.16 2.7ZM272.53 509.23a1 1 0 1 1-1 1 1 1 0 0 1 1-1Zm-.71 11.24v-7.4h1.43v7.4h-1.43ZM282.74 518.36a3.35 3.35 0 0 1-3.32 2.34 3.94 3.94 0 0 1-.18-7.86c2.28 0 3.55 1.57 3.55 3.88a3.21 3.21 0 0 1 0 .46h-5.57a2.2 2.2 0 0 0 2.23 2.25 2 2 0 0 0 2.08-1.49Zm-1.46-2.36a1.86 1.86 0 0 0-2-1.89 2 2 0 0 0-2 1.89h4ZM286.67 520.47h-1.45v-7.4h1.42v1.06a2.53 2.53 0 0 1 2.28-1.28c1.77 0 2.65 1.28 2.65 2.92v4.69h-1.45V516a1.61 1.61 0 0 0-1.72-1.86 1.78 1.78 0 0 0-1.72 2v4.28ZM295.32 516.76a2.33 2.33 0 0 0 2.26 2.6 2 2 0 0 0 2.06-1.52l1.28.55a3.4 3.4 0 0 1-3.34 2.31 3.94 3.94 0 0 1 0-7.86 3.22 3.22 0 0 1 3.29 2.35l-1.31.55a1.94 1.94 0 0 0-2-1.57 2.3 2.3 0 0 0-2.24 2.59ZM309.57 518.36a3.35 3.35 0 0 1-3.32 2.34 3.94 3.94 0 0 1-.18-7.86c2.28 0 3.55 1.57 3.55 3.88a3.24 3.24 0 0 1 0 .46H304a2.2 2.2 0 0 0 2.23 2.25 2 2 0 0 0 2.08-1.49ZM308.1 516a1.86 1.86 0 0 0-2-1.89 2 2 0 0 0-2 1.89h4ZM320.18 509.57c2.08 0 3.29 1.23 3.29 3a2.42 2.42 0 0 1-1.63 2.35 2.62 2.62 0 0 1 2 2.63c0 1.72-1.37 3-3.37 3h-3.81v-10.98h3.55Zm-.18 4.77a1.74 1.74 0 1 0-.06-3.45h-1.81v3.45H320Zm.21 4.81a1.8 1.8 0 0 0 2-1.74 1.73 1.73 0 0 0-2-1.78h-2.15v3.52h2.09ZM421.9 517.43h-4.83l-1.15 3h-1.61l4.34-10.91h1.74l4.34 10.91h-1.63Zm-4.29-1.4h3.75l-1.89-4.89ZM429 520.7a2.74 2.74 0 0 1-2.77-3v-4.66h1.45v4.45a1.65 1.65 0 0 0 1.68 1.91 1.67 1.67 0 0 0 1.75-1.89v-4.46h1.45v6a12.88 12.88 0 0 0 .08 1.37h-1.38a6.44 6.44 0 0 1-.06-.89 2.41 2.41 0 0 1-2.2 1.17ZM440.71 519.35a2.48 2.48 0 0 1-2.29 1.32c-2.17 0-3.51-1.72-3.51-3.92a3.63 3.63 0 0 1 3.51-3.87 2.27 2.27 0 0 1 2.26 1.25v-4.78h1.43v9.77a11.52 11.52 0 0 0 .08 1.37h-1.4a6.16 6.16 0 0 1-.08-1v-.12Zm-2.15 0c1.32 0 2.14-1.15 2.14-2.68s-.8-2.57-2.12-2.57-2.18 1.08-2.18 2.6.77 2.7 2.15 2.7ZM445.86 509.23a1 1 0 1 1-1 1 1 1 0 0 1 1-1Zm-.71 11.24v-7.4h1.43v7.4h-1.43ZM456.08 518.37a3.35 3.35 0 0 1-3.32 2.34 3.94 3.94 0 0 1-.19-7.86c2.28 0 3.55 1.57 3.55 3.88a3.21 3.21 0 0 1 0 .46h-5.57a2.2 2.2 0 0 0 2.23 2.25 2 2 0 0 0 2.08-1.49Zm-1.46-2.37a1.86 1.86 0 0 0-2-1.89 2 2 0 0 0-2 1.89h4ZM460 520.47h-1.45v-7.4H460v1.06a2.54 2.54 0 0 1 2.28-1.28c1.77 0 2.64 1.28 2.64 2.92v4.69h-1.45V516a1.61 1.61 0 0 0-1.72-1.86 1.78 1.78 0 0 0-1.72 2v4.28ZM468.65 516.77a2.33 2.33 0 0 0 2.26 2.6 2 2 0 0 0 2.06-1.52l1.28.55a3.4 3.4 0 0 1-3.34 2.31 3.94 3.94 0 0 1 0-7.86 3.22 3.22 0 0 1 3.29 2.35l-1.31.55a1.94 1.94 0 0 0-2-1.57 2.3 2.3 0 0 0-2.24 2.59ZM482.9 518.37a3.35 3.35 0 0 1-3.32 2.34 3.94 3.94 0 0 1-.18-7.86c2.28 0 3.55 1.57 3.55 3.88a3.21 3.21 0 0 1 0 .46h-5.57a2.2 2.2 0 0 0 2.23 2.25 2 2 0 0 0 2.08-1.49Zm-1.46-2.37a1.86 1.86 0 0 0-2-1.89 2 2 0 0 0-2 1.89h4ZM489.27 515a5.4 5.4 0 0 1 5.41-5.68 4.63 4.63 0 0 1 4.8 3.46l-1.4.49a3.23 3.23 0 0 0-3.4-2.57c-2 0-3.88 1.45-3.88 4.29s1.89 4.31 3.88 4.31a3.46 3.46 0 0 0 3.47-2.62l1.34.49a4.76 4.76 0 0 1-4.81 3.51 5.36 5.36 0 0 1-5.41-5.68Z"/><path class="cls-2" d="M842.92 245.51v-117.7"/><path class="cls-8" d="M654.16 464a15.62 15.62 0 0 0 28.52-.08"/><path class="cls-4" d="M668.46 500.38s22.52.66 31-4.27c14-8.14-.25-24.82-11.26-27.62-3.37 6.33-10.93 10.69-19.73 10.69h.25c-8.8 0-16.28-4.44-19.73-10.69-11 2.79-25.24 19.56-11.26 27.62 8.47 4.93 31 4.27 31 4.27"/><circle class="cls-4" cx="668.38" cy="443.08" r="18.91"/><path class="cls-8" d="M676.68 426.07c-5.51 14.14-15.95.41-26.8 21a18.91 18.91 0 0 0 37.4-3.95c0-1.12-9.12-4.89-10.6-17.05Zm2.06 32.88v9.54m-20.22 0v-9.29"/><path class="cls-10" d="M649.47 443.49s0 8.71 3.78 11.92c-3 1.4-9.54-.74-8.63-1.4 3.7-2.54 4.85-10.52 4.85-10.52Zm37.81-.41s-.16 9.12-3.95 12.33c3 1.4 9.54-.74 8.63-1.4-3.69-2.54-4.68-10.93-4.68-10.93Z"/><path class="cls-3" d="M1003 464.56a15.62 15.62 0 0 0 28.52-.08"/><path class="cls-2" d="M1016.86 500.9s22.52.66 31-4.27c14-8.14-.25-24.82-11.26-27.62-3.37 6.33-10.93 10.69-19.73 10.69h.25c-8.8 0-16.28-4.44-19.73-10.69-11 2.79-25.24 19.56-11.26 27.62 8.47 4.93 31 4.27 31 4.27"/><circle class="cls-2" cx="1017.19" cy="443.6" r="18.91"/><path class="cls-11" d="M1004.37 429.71c2.14 16.44 28 5.92 31.24 17.92a18.91 18.91 0 0 1-37.4-3.95 21.05 21.05 0 0 1 .25-3.21c.97.01 6.65 3.13 5.91-10.76Z"/><path class="cls-3" d="M1027.46 460.29V469M1007.24 469v-8.46"/><path class="cls-8" d="M828.49 464.34a15.62 15.62 0 0 0 28.52-.08"/><path class="cls-6" d="M842.79 500.68s22.52.66 31-4.27c14-8.14-.25-24.82-11.26-27.62-3.37 6.33-10.93 10.69-19.73 10.69h.2c-8.8 0-16.28-4.44-19.73-10.69-11 2.79-25.24 19.56-11.26 27.62 8.47 4.93 31 4.27 31 4.27"/><circle class="cls-6" cx="842.71" cy="443.38" r="18.91"/><path class="cls-8" d="M851 426.37c-5.51 14.14-15.95.41-26.8 21a18.91 18.91 0 0 0 37.4-3.95c.02-1.11-9.11-4.89-10.6-17.05Zm2.06 32.88v9.54m-20.22 0v-9.29"/><path class="cls-10" d="M823.81 443.79s0 8.71 3.78 11.92c-3 1.4-9.54-.74-8.63-1.4 3.69-2.54 4.85-10.52 4.85-10.52Zm37.81-.41s-.16 9.12-3.95 12.33c3 1.4 9.54-.74 8.63-1.4-3.7-2.54-4.68-10.93-4.68-10.93Z"/><path class="cls-5" d="M634.27 536.43h-4.83l-1.15 3h-1.61l4.32-10.86h1.74l4.34 10.91h-1.63ZM630 535h3.75l-1.89-4.89ZM641.36 539.7a2.74 2.74 0 0 1-2.77-3v-4.66H640v4.45a1.65 1.65 0 0 0 1.68 1.91 1.67 1.67 0 0 0 1.75-1.89v-4.46h1.45v6a12.56 12.56 0 0 0 .08 1.37h-1.38a6.46 6.46 0 0 1-.06-.89 2.41 2.41 0 0 1-2.16 1.17ZM653.07 538.35a2.48 2.48 0 0 1-2.29 1.32c-2.17 0-3.51-1.72-3.51-3.92a3.63 3.63 0 0 1 3.51-3.87 2.27 2.27 0 0 1 2.26 1.25v-4.78h1.43v9.77a11.62 11.62 0 0 0 .08 1.37h-1.4a6.28 6.28 0 0 1-.08-1v-.12Zm-2.15 0c1.32 0 2.14-1.15 2.14-2.68s-.8-2.57-2.12-2.57-2.18 1.08-2.18 2.6.77 2.7 2.16 2.7ZM658.23 528.23a1 1 0 1 1-1 1 1 1 0 0 1 1-1Zm-.71 11.24v-7.4H659v7.4h-1.43ZM668.44 537.36a3.35 3.35 0 0 1-3.32 2.34 3.94 3.94 0 0 1-.18-7.86c2.28 0 3.55 1.57 3.55 3.88a3.21 3.21 0 0 1 0 .46h-5.57a2.2 2.2 0 0 0 2.23 2.25 2 2 0 0 0 2.08-1.49ZM667 535a1.86 1.86 0 0 0-2-1.89 2 2 0 0 0-2 1.89h4ZM672.37 539.47h-1.45v-7.4h1.42v1.06a2.53 2.53 0 0 1 2.28-1.28c1.77 0 2.65 1.28 2.65 2.92v4.69h-1.45V535a1.61 1.61 0 0 0-1.72-1.86 1.78 1.78 0 0 0-1.72 2v4.28ZM681 535.76a2.33 2.33 0 0 0 2.26 2.6 2 2 0 0 0 2.06-1.52l1.28.55a3.4 3.4 0 0 1-3.34 2.31 3.94 3.94 0 0 1 0-7.86 3.22 3.22 0 0 1 3.29 2.35l-1.31.55a1.94 1.94 0 0 0-2-1.57 2.3 2.3 0 0 0-2.24 2.59ZM695.26 537.36a3.35 3.35 0 0 1-3.32 2.34 3.94 3.94 0 0 1-.18-7.86c2.28 0 3.55 1.57 3.55 3.88a3.24 3.24 0 0 1 0 .46h-5.57a2.2 2.2 0 0 0 2.23 2.25 2 2 0 0 0 2.08-1.49ZM693.8 535a1.86 1.86 0 0 0-2-1.89 2 2 0 0 0-2 1.89h4ZM708.7 536.43h-4.83l-1.15 3h-1.62l4.34-10.91h1.74l4.34 10.91h-1.63Zm-4.29-1.4h3.75l-1.89-4.89ZM811 536.43h-4.83l-1.15 3h-1.62l4.34-10.91h1.74l4.34 10.91h-1.63Zm-4.29-1.4h3.75l-1.89-4.89ZM818.1 539.7a2.74 2.74 0 0 1-2.77-3v-4.66h1.45v4.45a1.65 1.65 0 0 0 1.68 1.91 1.67 1.67 0 0 0 1.75-1.89v-4.46h1.45v6a12.56 12.56 0 0 0 .08 1.37h-1.38a6.46 6.46 0 0 1-.06-.89 2.41 2.41 0 0 1-2.2 1.17ZM829.8 538.35a2.48 2.48 0 0 1-2.29 1.32c-2.17 0-3.51-1.72-3.51-3.92a3.63 3.63 0 0 1 3.51-3.87 2.27 2.27 0 0 1 2.26 1.25v-4.78h1.43v9.77a11.62 11.62 0 0 0 .08 1.37h-1.4a6.28 6.28 0 0 1-.08-1v-.12Zm-2.15 0c1.32 0 2.14-1.15 2.14-2.68s-.8-2.57-2.12-2.57-2.18 1.08-2.18 2.6.78 2.7 2.16 2.7ZM835 528.23a1 1 0 1 1-1 1 1 1 0 0 1 1-1Zm-.71 11.24v-7.4h1.43v7.4h-1.43ZM845.18 537.36a3.35 3.35 0 0 1-3.32 2.34 3.94 3.94 0 0 1-.18-7.86c2.28 0 3.55 1.57 3.55 3.88a3.21 3.21 0 0 1 0 .46h-5.57a2.2 2.2 0 0 0 2.23 2.25 2 2 0 0 0 2.08-1.49Zm-1.46-2.36a1.86 1.86 0 0 0-2-1.89 2 2 0 0 0-2 1.89h4ZM849.1 539.47h-1.45v-7.4h1.42v1.06a2.53 2.53 0 0 1 2.28-1.28c1.77 0 2.65 1.28 2.65 2.92v4.69h-1.45V535a1.61 1.61 0 0 0-1.72-1.86 1.78 1.78 0 0 0-1.72 2v4.28ZM857.75 535.76a2.33 2.33 0 0 0 2.26 2.6 2 2 0 0 0 2.06-1.52l1.28.55a3.4 3.4 0 0 1-3.35 2.31 3.94 3.94 0 0 1 0-7.86 3.22 3.22 0 0 1 3.29 2.35l-1.31.55a1.94 1.94 0 0 0-2-1.57 2.3 2.3 0 0 0-2.23 2.59ZM872 537.36a3.35 3.35 0 0 1-3.32 2.34 3.94 3.94 0 0 1-.18-7.86c2.28 0 3.55 1.57 3.55 3.88a3.24 3.24 0 0 1 0 .46h-5.57a2.2 2.2 0 0 0 2.23 2.25 2 2 0 0 0 2.08-1.49Zm-1.46-2.36a1.86 1.86 0 0 0-2-1.89 2 2 0 0 0-2 1.89h4ZM882.62 528.57c2.08 0 3.29 1.23 3.29 3a2.42 2.42 0 0 1-1.63 2.35 2.62 2.62 0 0 1 2 2.63c0 1.72-1.37 3-3.37 3h-3.81v-10.98h3.55Zm-.17 4.77a1.74 1.74 0 1 0-.06-3.45h-1.81v3.45h1.88Zm.21 4.81a1.8 1.8 0 0 0 2-1.74 1.73 1.73 0 0 0-2-1.78h-2.15v3.52h2.09ZM981 536.43h-4.83l-1.15 3h-1.62l4.34-10.91h1.74l4.34 10.91h-1.63Zm-4.29-1.4h3.75l-1.89-4.89ZM988.1 539.7a2.74 2.74 0 0 1-2.77-3v-4.66h1.45v4.45a1.65 1.65 0 0 0 1.68 1.91 1.67 1.67 0 0 0 1.75-1.89v-4.46h1.45v6a12.56 12.56 0 0 0 .08 1.37h-1.38a6.46 6.46 0 0 1-.06-.89 2.41 2.41 0 0 1-2.2 1.17ZM999.81 538.35a2.48 2.48 0 0 1-2.29 1.32c-2.17 0-3.51-1.72-3.51-3.92a3.63 3.63 0 0 1 3.51-3.87 2.27 2.27 0 0 1 2.26 1.25v-4.78h1.43v9.77a11.62 11.62 0 0 0 .08 1.37h-1.4a6.28 6.28 0 0 1-.08-1v-.12Zm-2.15 0c1.32 0 2.14-1.15 2.14-2.68s-.8-2.57-2.12-2.57-2.18 1.08-2.18 2.6.77 2.7 2.15 2.7ZM1005 528.23a1 1 0 1 1-1 1 1 1 0 0 1 1-1Zm-.71 11.24v-7.4h1.43v7.4h-1.43ZM1015.18 537.36a3.35 3.35 0 0 1-3.32 2.34 3.94 3.94 0 0 1-.18-7.86c2.28 0 3.55 1.57 3.55 3.88a3.21 3.21 0 0 1 0 .46h-5.57a2.2 2.2 0 0 0 2.23 2.25 2 2 0 0 0 2.08-1.49Zm-1.46-2.35a1.86 1.86 0 0 0-2-1.89 2 2 0 0 0-2 1.89h4ZM1019.1 539.47h-1.45v-7.4h1.42v1.06a2.53 2.53 0 0 1 2.28-1.28c1.77 0 2.65 1.28 2.65 2.92v4.69h-1.45V535a1.61 1.61 0 0 0-1.72-1.86 1.78 1.78 0 0 0-1.72 2v4.28ZM1027.75 535.76a2.33 2.33 0 0 0 2.26 2.6 2 2 0 0 0 2.06-1.52l1.28.55a3.4 3.4 0 0 1-3.34 2.31 3.94 3.94 0 0 1 0-7.86 3.22 3.22 0 0 1 3.29 2.35l-1.31.55a1.94 1.94 0 0 0-2-1.57 2.3 2.3 0 0 0-2.24 2.59ZM1042 537.36a3.35 3.35 0 0 1-3.32 2.34 3.94 3.94 0 0 1-.18-7.86c2.28 0 3.55 1.57 3.55 3.88a3.24 3.24 0 0 1 0 .46h-5.57a2.2 2.2 0 0 0 2.23 2.25 2 2 0 0 0 2.08-1.49Zm-1.46-2.35a1.86 1.86 0 0 0-2-1.89 2 2 0 0 0-2 1.89h4ZM1048.37 534a5.4 5.4 0 0 1 5.41-5.68 4.63 4.63 0 0 1 4.8 3.46l-1.4.49a3.23 3.23 0 0 0-3.4-2.57c-2 0-3.88 1.45-3.88 4.29s1.89 4.31 3.88 4.31a3.47 3.47 0 0 0 3.48-2.62l1.34.49a4.76 4.76 0 0 1-4.81 3.51 5.36 5.36 0 0 1-5.42-5.68Z"/><path class="cls-2" d="M842.92 405.41v-117.7M668.38 245.51v-117.7M668.38 405.41v-117.7M1017.23 245.51v-117.7M1017.23 405.41v-117.7"/><path class="cls-4" d="M616.81 83.71h103.81v50H616.81v-50Z"/><path class="cls-5" d="M634.23 114.49v-10.9h6.63V105h-5.12v3.51h4.65v1.41h-4.65v4.58h-1.51ZM649 112.39a3.35 3.35 0 0 1-3.32 2.34 3.94 3.94 0 0 1-.18-7.86c2.28 0 3.55 1.57 3.55 3.88a3.24 3.24 0 0 1 0 .46h-5.55a2.2 2.2 0 0 0 2.23 2.25 2 2 0 0 0 2.07-1.46Zm-1.41-2.39a1.86 1.86 0 0 0-2-1.89 2 2 0 0 0-2 1.89h4ZM653.31 110.26l2-.29a.54.54 0 0 0 .57-.55 1.35 1.35 0 0 0-1.6-1.32 1.57 1.57 0 0 0-1.68 1.49l-1.38-.32a2.85 2.85 0 0 1 3-2.4c2.21 0 3.08 1.26 3.08 2.71v3.71a7 7 0 0 0 .09 1.21H656a5.48 5.48 0 0 1-.08-1 2.7 2.7 0 0 1-2.38 1.23 2.24 2.24 0 1 1-.23-4.47Zm2.57 1.06V111l-2.26.34a1.11 1.11 0 0 0-1.08 1.11 1.12 1.12 0 0 0 1.2 1.08 1.94 1.94 0 0 0 2.14-2.2ZM662.1 107.1h1.6v1.31h-1.6v3.84a.88.88 0 0 0 1 1 3 3 0 0 0 .57-.06v1.23a3.17 3.17 0 0 1-1 .14 1.92 1.92 0 0 1-2.06-2.11v-4.05h-1.42v-1.3h.4a1 1 0 0 0 1.14-1.14v-1.2h1.32v2.34ZM668.9 114.72a2.74 2.74 0 0 1-2.77-3v-4.62h1.45v4.45a1.65 1.65 0 0 0 1.68 1.91 1.67 1.67 0 0 0 1.75-1.89v-4.47h1.45v6a12.62 12.62 0 0 0 .08 1.37h-1.38a6.46 6.46 0 0 1-.06-.89 2.41 2.41 0 0 1-2.2 1.14ZM679.61 108.56a4.58 4.58 0 0 0-.63 0c-1.22 0-2 .65-2 2.28v3.71h-1.48v-7.4h1.42v1.29a2.32 2.32 0 0 1 2.21-1.42 2.68 2.68 0 0 1 .48 0v1.54ZM688.1 112.39a3.35 3.35 0 0 1-3.32 2.34 3.94 3.94 0 0 1-.18-7.86c2.28 0 3.55 1.57 3.55 3.88a3.21 3.21 0 0 1 0 .46h-5.57a2.2 2.2 0 0 0 2.23 2.25 2 2 0 0 0 2.08-1.49Zm-1.46-2.39a1.86 1.86 0 0 0-2-1.89 2 2 0 0 0-2 1.89h4ZM701.54 111.45h-4.83l-1.15 3h-1.61l4.34-10.91H700l4.34 10.91h-1.63Zm-4.29-1.4H701l-1.89-4.89Z"/><path class="cls-6" d="M791.88 83.49h103.81v50H791.88v-50Z"/><path class="cls-5" d="M809.3 114.28v-10.91h6.63v1.4h-5.12v3.51h4.65v1.41h-4.65v4.58h-1.51ZM824.12 112.17a3.35 3.35 0 0 1-3.32 2.34 3.94 3.94 0 0 1-.18-7.86c2.28 0 3.55 1.57 3.55 3.88a3.24 3.24 0 0 1 0 .46h-5.57a2.2 2.2 0 0 0 2.23 2.25 2 2 0 0 0 2.08-1.49Zm-1.46-2.35a1.86 1.86 0 0 0-2-1.89 2 2 0 0 0-2 1.89h4ZM828.38 110l2-.29a.54.54 0 0 0 .57-.55 1.35 1.35 0 0 0-1.6-1.32 1.57 1.57 0 0 0-1.68 1.49l-1.38-.32a2.85 2.85 0 0 1 3-2.4c2.21 0 3.08 1.26 3.08 2.71v3.71a7 7 0 0 0 .09 1.21h-1.42a5.48 5.48 0 0 1-.08-1 2.7 2.7 0 0 1-2.38 1.23 2.24 2.24 0 1 1-.2-4.47Zm2.57 1.06v-.34l-2.26.34a1.11 1.11 0 0 0-1.08 1.11 1.12 1.12 0 0 0 1.2 1.08 1.94 1.94 0 0 0 2.14-2.14ZM837.17 106.88h1.6v1.31h-1.6V112a.88.88 0 0 0 1 1 3 3 0 0 0 .57-.06v1.23a3.17 3.17 0 0 1-1 .14 1.92 1.92 0 0 1-2.06-2.11v-4.06h-1.38v-1.31h.4a1 1 0 0 0 1.14-1.14v-1.2h1.32v2.34ZM844 114.51a2.74 2.74 0 0 1-2.77-3v-4.66h1.45v4.45a1.65 1.65 0 0 0 1.68 1.91 1.67 1.67 0 0 0 1.75-1.89v-4.46h1.45v6a12.62 12.62 0 0 0 .08 1.37h-1.38a6.46 6.46 0 0 1-.06-.89 2.41 2.41 0 0 1-2.2 1.17ZM854.68 108.34a4.58 4.58 0 0 0-.63 0c-1.22 0-2 .65-2 2.28v3.71h-1.45v-7.4h1.4v1.29a2.32 2.32 0 0 1 2.21-1.42 2.68 2.68 0 0 1 .48 0v1.54ZM863.17 112.17a3.35 3.35 0 0 1-3.32 2.34 3.94 3.94 0 0 1-.18-7.86c2.28 0 3.55 1.57 3.55 3.88a3.21 3.21 0 0 1 0 .46h-5.57a2.2 2.2 0 0 0 2.23 2.25 2 2 0 0 0 2.08-1.49Zm-1.46-2.35a1.86 1.86 0 0 0-2-1.89 2 2 0 0 0-2 1.89h4ZM873.79 103.37c2.08 0 3.29 1.23 3.29 3a2.42 2.42 0 0 1-1.63 2.35 2.62 2.62 0 0 1 2 2.63c0 1.72-1.37 3-3.37 3h-3.81v-10.98h3.55Zm-.17 4.77a1.74 1.74 0 1 0-.06-3.45h-1.82v3.45h1.88Zm.22 4.81a1.8 1.8 0 0 0 2-1.74 1.73 1.73 0 0 0-2-1.78h-2.15V113h2.09Z"/><path class="cls-2" d="M965.21 83.49H1069v50H965.21v-50Z"/><path class="cls-5" d="M982.63 114.28v-10.91h6.63v1.4h-5.12v3.51h4.65v1.41h-4.65v4.58h-1.51ZM997.45 112.17a3.35 3.35 0 0 1-3.32 2.34 3.94 3.94 0 0 1-.18-7.86c2.28 0 3.55 1.57 3.55 3.88a3.24 3.24 0 0 1 0 .46h-5.6a2.2 2.2 0 0 0 2.23 2.25 2 2 0 0 0 2.08-1.49Zm-1.45-2.36a1.86 1.86 0 0 0-2-1.89 2 2 0 0 0-2 1.89h4ZM1001.71 110l2-.29a.54.54 0 0 0 .57-.55 1.35 1.35 0 0 0-1.6-1.32 1.57 1.57 0 0 0-1.68 1.49l-1.38-.32a2.85 2.85 0 0 1 3-2.4c2.21 0 3.08 1.26 3.08 2.71v3.71a7 7 0 0 0 .09 1.21h-1.42a5.48 5.48 0 0 1-.08-1 2.7 2.7 0 0 1-2.38 1.23 2.24 2.24 0 1 1-.2-4.47Zm2.57 1.06v-.34l-2.26.34a1.11 1.11 0 0 0-1.08 1.11 1.12 1.12 0 0 0 1.2 1.08 1.94 1.94 0 0 0 2.14-2.14ZM1010.5 106.88h1.6v1.31h-1.6V112a.88.88 0 0 0 1 1 3 3 0 0 0 .57-.06v1.23a3.17 3.17 0 0 1-1 .14 1.92 1.92 0 0 1-2.06-2.11v-4.06h-1.42v-1.31h.4a1 1 0 0 0 1.14-1.14v-1.2h1.32v2.34ZM1017.3 114.51a2.74 2.74 0 0 1-2.77-3v-4.66h1.47v4.45a1.65 1.65 0 0 0 1.68 1.91 1.67 1.67 0 0 0 1.75-1.89v-4.46h1.45v6a12.62 12.62 0 0 0 .08 1.37h-1.38a6.46 6.46 0 0 1-.06-.89 2.41 2.41 0 0 1-2.22 1.17ZM1028 108.34a4.58 4.58 0 0 0-.63 0c-1.22 0-2 .65-2 2.28v3.71h-1.45v-7.4h1.42v1.29a2.32 2.32 0 0 1 2.21-1.42 2.68 2.68 0 0 1 .48 0v1.54ZM1036.5 112.17a3.35 3.35 0 0 1-3.32 2.34 3.94 3.94 0 0 1-.18-7.86c2.28 0 3.55 1.57 3.55 3.88a3.21 3.21 0 0 1 0 .46H1031a2.2 2.2 0 0 0 2.23 2.25 2 2 0 0 0 2.08-1.49Zm-1.46-2.35a1.86 1.86 0 0 0-2-1.89 2 2 0 0 0-2 1.89h4ZM1042.88 108.82a5.4 5.4 0 0 1 5.41-5.68 4.63 4.63 0 0 1 4.8 3.46l-1.4.49a3.23 3.23 0 0 0-3.4-2.57c-2 0-3.88 1.45-3.88 4.29s1.89 4.31 3.88 4.31a3.47 3.47 0 0 0 3.48-2.62l1.34.49a4.76 4.76 0 0 1-4.81 3.51 5.36 5.36 0 0 1-5.42-5.68Z"/><path class="cls-4" d="M616.81 237.63h103.81v50H616.81v-50Z"/><path class="cls-5" d="M637.39 264h-1.63v4.46h-1.52v-10.95h4.11a3.16 3.16 0 0 1 3.34 3.25 3.05 3.05 0 0 1-2.64 3.09l2.6 4.57h-1.75Zm.68-1.35a1.88 1.88 0 1 0 0-3.74h-2.31v3.74h2.31ZM650.33 266.31a3.35 3.35 0 0 1-3.32 2.34 3.94 3.94 0 0 1-.18-7.86c2.28 0 3.55 1.57 3.55 3.88a3.23 3.23 0 0 1 0 .46h-5.57a2.2 2.2 0 0 0 2.23 2.24 2 2 0 0 0 2.08-1.49Zm-1.47-2.31a1.87 1.87 0 0 0-2-1.89 2 2 0 0 0-2 1.89h4ZM652.81 268.42v-11.14h1.45v11.14h-1.45ZM663.74 266.31a3.35 3.35 0 0 1-3.32 2.34 3.94 3.94 0 0 1-.18-7.86c2.28 0 3.55 1.57 3.55 3.88a3.23 3.23 0 0 1 0 .46h-5.57a2.2 2.2 0 0 0 2.23 2.24 2 2 0 0 0 2.08-1.49Zm-1.46-2.31a1.87 1.87 0 0 0-2-1.89 2 2 0 0 0-2 1.89h4ZM668 264.18l2-.29a.54.54 0 0 0 .57-.55A1.35 1.35 0 0 0 669 262a1.57 1.57 0 0 0-1.68 1.49l-1.38-.32a2.85 2.85 0 0 1 3-2.4c2.21 0 3.08 1.26 3.08 2.71v3.71a7.05 7.05 0 0 0 .09 1.21h-1.41a5.46 5.46 0 0 1-.08-1 2.69 2.69 0 0 1-2.38 1.23 2.24 2.24 0 1 1-.24-4.45Zm2.57 1.06v-.34l-2.26.34a1.1 1.1 0 0 0-1.08 1.11 1.12 1.12 0 0 0 1.2 1.08 1.94 1.94 0 0 0 2.15-2.18ZM675.47 266a1.58 1.58 0 0 0 1.72 1.38 1.09 1.09 0 0 0 1.26-1 1 1 0 0 0-1-1l-1.26-.28a2.1 2.1 0 0 1-1.85-2.08 2.52 2.52 0 0 1 2.63-2.34 2.62 2.62 0 0 1 2.81 2l-1.28.48A1.43 1.43 0 0 0 677 262a1.12 1.12 0 0 0-1.23 1 .91.91 0 0 0 .85.89l1.2.26a2.25 2.25 0 0 1 2 2.2 2.45 2.45 0 0 1-2.71 2.29 2.79 2.79 0 0 1-3-2.15ZM688.76 266.31a3.35 3.35 0 0 1-3.32 2.34 3.94 3.94 0 0 1-.18-7.86c2.28 0 3.55 1.57 3.55 3.88a3.26 3.26 0 0 1 0 .46h-5.57a2.2 2.2 0 0 0 2.23 2.24 2 2 0 0 0 2.08-1.49ZM687.3 264a1.86 1.86 0 0 0-2-1.89 2 2 0 0 0-2 1.89h4ZM702.2 265.37h-4.83l-1.15 3h-1.62l4.34-10.91h1.74l4.32 10.96h-1.63Zm-4.29-1.4h3.75l-1.89-4.89Z"/><path class="cls-6" d="M791.88 237.41h103.81v50H791.88v-50Z"/><path class="cls-5" d="M812.45 263.74h-1.63v4.46h-1.52v-10.91h4.11a3.16 3.16 0 0 1 3.34 3.25 3.05 3.05 0 0 1-2.64 3.09l2.6 4.57h-1.75Zm.68-1.35a1.88 1.88 0 1 0 0-3.74h-2.31v3.74h2.31ZM825.39 266.09a3.35 3.35 0 0 1-3.32 2.34 3.94 3.94 0 0 1-.18-7.86c2.28 0 3.55 1.57 3.55 3.88a3.21 3.21 0 0 1 0 .46h-5.57a2.2 2.2 0 0 0 2.23 2.25 2 2 0 0 0 2.08-1.49Zm-1.46-2.35a1.86 1.86 0 0 0-2-1.89 2 2 0 0 0-2 1.89h4ZM827.87 268.2v-11.14h1.45v11.14h-1.45ZM838.81 266.09a3.35 3.35 0 0 1-3.32 2.34 3.94 3.94 0 0 1-.18-7.86c2.28 0 3.55 1.57 3.55 3.88a3.21 3.21 0 0 1 0 .46h-5.57a2.2 2.2 0 0 0 2.23 2.25 2 2 0 0 0 2.08-1.49Zm-1.46-2.35a1.86 1.86 0 0 0-2-1.89 2 2 0 0 0-2 1.89h4ZM843.07 264l2-.29a.54.54 0 0 0 .57-.55 1.35 1.35 0 0 0-1.6-1.32 1.57 1.57 0 0 0-1.68 1.49L841 263a2.85 2.85 0 0 1 3-2.4c2.21 0 3.08 1.26 3.08 2.71V267a7 7 0 0 0 .09 1.21h-1.42a5.45 5.45 0 0 1-.08-1 2.69 2.69 0 0 1-2.38 1.23 2.24 2.24 0 1 1-.22-4.44Zm2.57 1.06v-.34l-2.26.34a1.1 1.1 0 0 0-1.08 1.11 1.12 1.12 0 0 0 1.2 1.08 1.94 1.94 0 0 0 2.14-2.25ZM850.54 265.81a1.58 1.58 0 0 0 1.72 1.38 1.09 1.09 0 0 0 1.26-1 1 1 0 0 0-1-1l-1.26-.28a2.1 2.1 0 0 1-1.85-2.08 2.52 2.52 0 0 1 2.63-2.34 2.62 2.62 0 0 1 2.81 2l-1.28.48a1.43 1.43 0 0 0-1.54-1.23 1.12 1.12 0 0 0-1.23 1 .91.91 0 0 0 .85.89l1.2.26a2.25 2.25 0 0 1 2 2.2 2.45 2.45 0 0 1-2.71 2.29 2.79 2.79 0 0 1-3-2.15ZM863.83 266.09a3.35 3.35 0 0 1-3.32 2.34 3.94 3.94 0 0 1-.18-7.86c2.28 0 3.55 1.57 3.55 3.88a3.24 3.24 0 0 1 0 .46h-5.57a2.2 2.2 0 0 0 2.23 2.25 2 2 0 0 0 2.08-1.49Zm-1.46-2.35a1.86 1.86 0 0 0-2-1.89 2 2 0 0 0-2 1.89h4ZM874.45 257.29c2.08 0 3.29 1.23 3.29 3a2.42 2.42 0 0 1-1.63 2.35 2.62 2.62 0 0 1 2 2.63c0 1.72-1.37 3-3.37 3h-3.84v-10.98h3.55Zm-.17 4.77a1.74 1.74 0 1 0-.06-3.45h-1.82v3.45h1.88Zm.21 4.81a1.8 1.8 0 0 0 2-1.74 1.73 1.73 0 0 0-2-1.78h-2.09v3.52h2.09Z"/><path class="cls-2" d="M965.21 237.41H1069v50H965.21v-50Z"/><path class="cls-5" d="M985.79 263.74h-1.63v4.46h-1.52v-10.91h4.11a3.16 3.16 0 0 1 3.34 3.25 3.05 3.05 0 0 1-2.64 3.09l2.6 4.57h-1.75Zm.68-1.35a1.88 1.88 0 1 0 0-3.74h-2.31v3.74h2.31ZM998.73 266.09a3.35 3.35 0 0 1-3.32 2.34 3.94 3.94 0 0 1-.18-7.86c2.28 0 3.55 1.57 3.55 3.88a3.21 3.21 0 0 1 0 .46h-5.57a2.2 2.2 0 0 0 2.23 2.25 2 2 0 0 0 2.08-1.49Zm-1.46-2.35a1.86 1.86 0 0 0-2-1.89 2 2 0 0 0-2 1.89h4ZM1001.21 268.2v-11.14h1.45v11.14h-1.45ZM1012.14 266.09a3.35 3.35 0 0 1-3.32 2.34 3.94 3.94 0 0 1-.18-7.86c2.28 0 3.55 1.57 3.55 3.88a3.21 3.21 0 0 1 0 .46h-5.57a2.2 2.2 0 0 0 2.23 2.25 2 2 0 0 0 2.08-1.49Zm-1.46-2.35a1.86 1.86 0 0 0-2-1.89 2 2 0 0 0-2 1.89h4ZM1016.41 264l2-.29a.54.54 0 0 0 .57-.55 1.35 1.35 0 0 0-1.6-1.32 1.57 1.57 0 0 0-1.68 1.49l-1.38-.32a2.85 2.85 0 0 1 3-2.4c2.21 0 3.08 1.26 3.08 2.71V267a7 7 0 0 0 .09 1.21h-1.42a5.45 5.45 0 0 1-.08-1 2.69 2.69 0 0 1-2.38 1.23 2.24 2.24 0 1 1-.2-4.44Zm2.59 1v-.34l-2.26.34a1.1 1.1 0 0 0-1.08 1.11 1.12 1.12 0 0 0 1.2 1.08A1.94 1.94 0 0 0 1019 265ZM1023.87 265.81a1.58 1.58 0 0 0 1.72 1.38 1.09 1.09 0 0 0 1.26-1 1 1 0 0 0-1-1l-1.26-.28a2.1 2.1 0 0 1-1.85-2.08 2.52 2.52 0 0 1 2.63-2.34 2.62 2.62 0 0 1 2.81 2l-1.18.51a1.43 1.43 0 0 0-1.54-1.23 1.12 1.12 0 0 0-1.23 1 .91.91 0 0 0 .85.89l1.2.26a2.25 2.25 0 0 1 2 2.2 2.45 2.45 0 0 1-2.71 2.29 2.79 2.79 0 0 1-3-2.15ZM1037.16 266.09a3.35 3.35 0 0 1-3.32 2.34 3.94 3.94 0 0 1-.18-7.86c2.28 0 3.55 1.57 3.55 3.88a3.24 3.24 0 0 1 0 .46h-5.57a2.2 2.2 0 0 0 2.23 2.25 2 2 0 0 0 2.08-1.49Zm-1.46-2.35a1.86 1.86 0 0 0-2-1.89 2 2 0 0 0-2 1.89h4ZM1043.54 262.74a5.4 5.4 0 0 1 5.41-5.68 4.63 4.63 0 0 1 4.8 3.46l-1.4.49a3.23 3.23 0 0 0-3.4-2.57c-2 0-3.88 1.45-3.88 4.29S1047 267 1049 267a3.47 3.47 0 0 0 3.48-2.62l1.34.49a4.76 4.76 0 0 1-4.81 3.51 5.36 5.36 0 0 1-5.47-5.64Z"/><path d="M559.45 50.38v495" style="stroke:#ccc;stroke-linejoin:round;stroke-linecap:round;fill:none"/><path class="cls-5" d="M236.78 41.38v-8.49l-3.72 8.49h-1.38L228 32.89v8.49h-1.49V30.47h2l3.85 8.88 3.88-8.87h2v10.9h-1.49ZM248.43 37.67a3.79 3.79 0 1 1-7.57 0 3.79 3.79 0 1 1 7.57 0Zm-1.48 0a2.33 2.33 0 1 0-4.61 0 2.33 2.33 0 1 0 4.61 0ZM252.31 41.38h-1.45V34h1.42v1a2.53 2.53 0 0 1 2.28-1.28c1.77 0 2.65 1.28 2.65 2.92v4.69h-1.45v-4.4a1.61 1.61 0 0 0-1.76-1.86 1.78 1.78 0 0 0-1.72 2v4.28ZM267 37.67a3.79 3.79 0 1 1-7.57 0 3.79 3.79 0 1 1 7.57 0Zm-1.48 0a2.33 2.33 0 1 0-4.61 0 2.33 2.33 0 1 0 4.66 0ZM269.48 41.38V30.24h1.45v11.14h-1.45ZM274.68 30.13a1 1 0 1 1-1 1 1 1 0 0 1 1-1ZM274 41.38V34h1.43v7.4H274ZM280.39 34H282v1.31h-1.6v3.84a.88.88 0 0 0 1 1 3.06 3.06 0 0 0 .57-.06v1.23a3.2 3.2 0 0 1-1 .14 1.92 1.92 0 0 1-2.06-2.11v-4.06h-1.42V34h.4a1 1 0 0 0 1.14-1.14v-1.2h1.32V34ZM285.94 41.38h-1.44V30.24h1.45v4.6a2.62 2.62 0 0 1 2.25-1.08c1.77 0 2.65 1.28 2.65 2.92v4.69h-1.45v-4.44a1.61 1.61 0 0 0-1.72-1.86 1.76 1.76 0 0 0-1.72 2v4.35ZM294.44 30.13a1 1 0 1 1-1 1 1 1 0 0 1 1-1Zm-.71 11.24V34h1.43v7.4h-1.43ZM299.07 37.67a2.33 2.33 0 0 0 2.26 2.6 2 2 0 0 0 2.06-1.52l1.28.55a3.4 3.4 0 0 1-3.34 2.31 3.74 3.74 0 0 1-3.74-3.94 3.71 3.71 0 0 1 3.72-3.92 3.22 3.22 0 0 1 3.29 2.35l-1.31.55a1.94 1.94 0 0 0-2-1.57 2.3 2.3 0 0 0-2.22 2.59ZM314.69 36.92h-1.63v4.46h-1.52V30.47h4.11a3.16 3.16 0 0 1 3.35 3.25 3.05 3.05 0 0 1-2.65 3.09l2.6 4.57h-1.75Zm.68-1.35a1.88 1.88 0 1 0 0-3.74h-2.31v3.74h2.31ZM327.63 39.27a3.35 3.35 0 0 1-3.32 2.34 3.69 3.69 0 0 1-3.72-4 3.69 3.69 0 0 1 3.54-3.91c2.28 0 3.55 1.57 3.55 3.88a3.22 3.22 0 0 1 0 .46h-5.57a2.2 2.2 0 0 0 2.23 2.25 2 2 0 0 0 2.08-1.49Zm-1.46-2.35a1.86 1.86 0 0 0-2-1.89 2 2 0 0 0-2 1.89h4ZM330.11 41.38V30.24h1.45v11.14h-1.45ZM341 39.27a3.35 3.35 0 0 1-3.32 2.34 3.69 3.69 0 0 1-3.72-4 3.69 3.69 0 0 1 3.54-3.91c2.28 0 3.55 1.57 3.55 3.88a3.22 3.22 0 0 1 0 .46h-5.57a2.2 2.2 0 0 0 2.23 2.25 2 2 0 0 0 2.08-1.49Zm-1.46-2.35a1.86 1.86 0 0 0-2-1.89 2 2 0 0 0-2 1.89h4ZM345.31 37.15l2-.29a.54.54 0 0 0 .57-.55 1.35 1.35 0 0 0-1.6-1.32 1.57 1.57 0 0 0-1.68 1.49l-1.38-.32a2.85 2.85 0 0 1 3-2.4c2.21 0 3.08 1.26 3.08 2.71v3.71a7 7 0 0 0 .09 1.21H348a5.47 5.47 0 0 1-.08-1 2.7 2.7 0 0 1-2.38 1.23 2.24 2.24 0 1 1-.23-4.47Zm2.57 1.06v-.34l-2.26.34a1.11 1.11 0 0 0-1.08 1.11 1.12 1.12 0 0 0 1.2 1.08 1.94 1.94 0 0 0 2.14-2.19ZM352.77 39a1.58 1.58 0 0 0 1.72 1.38 1.09 1.09 0 0 0 1.26-1 1 1 0 0 0-1-1l-1.26-.28a2.1 2.1 0 0 1-1.85-2.08 2.52 2.52 0 0 1 2.63-2.34 2.62 2.62 0 0 1 2.81 2l-1.28.48a1.43 1.43 0 0 0-1.47-1.16 1.12 1.12 0 0 0-1.23 1 .91.91 0 0 0 .85.89l1.2.26a2.25 2.25 0 0 1 2 2.2 2.45 2.45 0 0 1-2.71 2.29 2.79 2.79 0 0 1-3-2.15ZM366.06 39.27a3.35 3.35 0 0 1-3.32 2.34 3.69 3.69 0 0 1-3.72-4 3.69 3.69 0 0 1 3.54-3.91c2.28 0 3.55 1.57 3.55 3.88a3.2 3.2 0 0 1 0 .46h-5.57a2.2 2.2 0 0 0 2.23 2.25 2 2 0 0 0 2.08-1.49Zm-1.46-2.35a1.86 1.86 0 0 0-2-1.89 2 2 0 0 0-2 1.89h4ZM788 38.33h-4.83l-1.15 3h-1.61l4.34-10.91h1.74l4.34 10.91h-1.63Zm-4.29-1.4h3.75L785.58 32ZM793.51 41.45a2 2 0 0 0 2 1.81c1.55 0 2.26-.8 2.26-2.4v-1.05a2.46 2.46 0 0 1-2.25 1.19 3.37 3.37 0 0 1-3.4-3.58 3.4 3.4 0 0 1 3.4-3.6A2.34 2.34 0 0 1 797.8 35v-1h1.43v6.84a3.38 3.38 0 0 1-3.71 3.71 3.24 3.24 0 0 1-3.41-2.75Zm4.34-4a2.14 2.14 0 1 0-4.25 0 2.14 2.14 0 1 0 4.25-.01ZM802.83 30.13a1 1 0 1 1-1 1 1 1 0 0 1 1-1Zm-.71 11.24V34h1.43v7.4h-1.43ZM806.6 41.38V30.24h1.4v11.14h-1.4ZM817.54 39.27a3.35 3.35 0 0 1-3.32 2.34 3.69 3.69 0 0 1-3.72-4 3.69 3.69 0 0 1 3.5-3.86c2.28 0 3.55 1.57 3.55 3.88a3.26 3.26 0 0 1 0 .46H812a2.2 2.2 0 0 0 2.23 2.24 2 2 0 0 0 2.08-1.49Zm-1.46-2.35A1.86 1.86 0 0 0 814 35a2 2 0 0 0-2 1.89h4ZM827.76 36.92h-1.63v4.46h-1.53V30.47h4.11a3.16 3.16 0 0 1 3.34 3.25 3.05 3.05 0 0 1-2.65 3.09l2.6 4.57h-1.75Zm.68-1.35a1.88 1.88 0 1 0 0-3.74h-2.31v3.74h2.31ZM840.7 39.27a3.35 3.35 0 0 1-3.32 2.34 3.69 3.69 0 0 1-3.72-4 3.69 3.69 0 0 1 3.54-3.91c2.28 0 3.55 1.57 3.55 3.88a3.23 3.23 0 0 1 0 .46h-5.57a2.2 2.2 0 0 0 2.23 2.24 2 2 0 0 0 2.08-1.49Zm-1.46-2.35a1.87 1.87 0 0 0-2-1.89 2 2 0 0 0-2 1.89h4ZM843.18 41.38V30.24h1.45v11.14h-1.45ZM854.12 39.27a3.35 3.35 0 0 1-3.32 2.34 3.69 3.69 0 0 1-3.72-4 3.69 3.69 0 0 1 3.54-3.91c2.28 0 3.55 1.57 3.55 3.88a3.23 3.23 0 0 1 0 .46h-5.57a2.2 2.2 0 0 0 2.23 2.24 2 2 0 0 0 2.08-1.49Zm-1.46-2.35a1.87 1.87 0 0 0-2-1.89 2 2 0 0 0-2 1.89h4ZM858.38 37.15l2-.29a.54.54 0 0 0 .57-.55 1.35 1.35 0 0 0-1.6-1.32 1.57 1.57 0 0 0-1.68 1.49l-1.38-.32a2.85 2.85 0 0 1 3-2.4c2.21 0 3.08 1.26 3.08 2.71v3.71a7.05 7.05 0 0 0 .09 1.21h-1.42a5.46 5.46 0 0 1-.08-1 2.69 2.69 0 0 1-2.38 1.23 2.24 2.24 0 1 1-.2-4.47Zm2.57 1.06v-.34l-2.26.34a1.1 1.1 0 0 0-1.08 1.11 1.12 1.12 0 0 0 1.2 1.08 1.94 1.94 0 0 0 2.14-2.19ZM865.84 39a1.58 1.58 0 0 0 1.72 1.38 1.09 1.09 0 0 0 1.26-1 1 1 0 0 0-1-1l-1.26-.28a2.11 2.11 0 0 1-1.85-2.08 2.52 2.52 0 0 1 2.63-2.34 2.62 2.62 0 0 1 2.81 2l-1.28.48A1.43 1.43 0 0 0 867.4 35a1.12 1.12 0 0 0-1.23 1 .91.91 0 0 0 .85.89l1.2.26a2.25 2.25 0 0 1 2 2.2 2.45 2.45 0 0 1-2.71 2.29 2.79 2.79 0 0 1-3-2.15ZM879.14 39.27a3.35 3.35 0 0 1-3.32 2.34 3.69 3.69 0 0 1-3.72-4 3.69 3.69 0 0 1 3.54-3.91c2.28 0 3.55 1.57 3.55 3.88a3.26 3.26 0 0 1 0 .46h-5.57a2.2 2.2 0 0 0 2.23 2.24 2 2 0 0 0 2.08-1.49Zm-1.46-2.35a1.86 1.86 0 0 0-2-1.89 2 2 0 0 0-2 1.89h4ZM882.23 39a1.58 1.58 0 0 0 1.77 1.38 1.09 1.09 0 0 0 1.26-1 1 1 0 0 0-1-1l-1.26-.22a2.11 2.11 0 0 1-1.85-2.08 2.52 2.52 0 0 1 2.63-2.34 2.62 2.62 0 0 1 2.81 2l-1.28.48a1.43 1.43 0 0 0-1.52-1.22 1.12 1.12 0 0 0-1.23 1 .91.91 0 0 0 .85.89l1.2.26a2.25 2.25 0 0 1 2 2.2 2.45 2.45 0 0 1-2.71 2.29 2.79 2.79 0 0 1-3-2.15Z"/></svg>